<svg width="24" height="24" viewBox="0 0 24 24" fill="none" xmlns="http://www.w3.org/2000/svg">
<path fill-rule="evenodd" clip-rule="evenodd" d="M16.9159 14.2832C17.6785 13.2191 18.1269 11.918 18.1269 10.5128C18.1269 6.91589 15.1883 4 11.5634 4C7.93856 4 5 6.91589 5 10.5128C5 11.918 5.44843 13.2191 6.21103 14.2832C6.67363 15.0144 7.27964 15.9139 7.87151 16.6186C8.72238 17.6318 10.2197 19.0472 11.0211 19.7871C11.3287 20.071 11.7982 20.071 12.1058 19.7871C12.9072 19.0472 14.4045 17.6318 15.2554 16.6186C15.8472 15.9139 16.4533 15.0144 16.9159 14.2832ZM13.2043 10.5128C13.2043 11.4121 12.4697 12.141 11.5634 12.141C10.6572 12.141 9.92258 11.4121 9.92258 10.5128C9.92258 9.6136 10.6572 8.88462 11.5634 8.88462C12.4697 8.88462 13.2043 9.6136 13.2043 10.5128Z" fill="#BD0F72"/>
</svg>
