<svg width="72" height="72" viewBox="0 0 72 72" fill="none" xmlns="http://www.w3.org/2000/svg">
<path d="M46.1464 14.3665L43.0509 17.3851L34.4521 9C55.3643 9.53665 62.1974 25.5466 62.9999 33.4845H59.9044C59.0789 21.9466 50.3885 15.9317 46.1464 14.3665Z" fill="#BD0F72"/>
<path d="M25.8536 57.6335L28.9491 54.6149L37.5479 63C16.6357 62.4634 9.80263 46.4534 9.00008 38.5155H12.0956C12.9211 50.0534 21.6115 56.0683 25.8536 57.6335Z" fill="#BD0F72"/>
<path fill-rule="evenodd" clip-rule="evenodd" d="M35.9996 51.5246C44.5738 51.5246 51.5246 44.5738 51.5246 35.9996C51.5246 27.4254 44.5738 20.4746 35.9996 20.4746C27.4254 20.4746 20.4746 27.4254 20.4746 35.9996C20.4746 44.5738 27.4254 51.5246 35.9996 51.5246ZM39.1217 48.3153C44.1851 47.0357 48.038 42.7156 48.6244 37.411H42.0569C42.0557 37.431 42.0544 37.451 42.0532 37.471C41.8689 40.3732 41.2852 43.1624 40.4253 45.4961C40.0532 46.5058 39.6178 47.4615 39.1217 48.3153ZM33.026 48.3519C31.0084 45.1393 30.1134 41.2237 29.9647 37.411H23.3749C23.967 42.7673 27.8896 47.1199 33.026 48.3519ZM32.7889 37.411C32.9545 41.2741 33.965 45.0286 36.0814 47.8105C36.677 47.016 37.2649 45.9087 37.7766 44.52C38.5225 42.4959 39.0515 40.0222 39.2283 37.411H32.7889ZM39.2775 34.5882H32.8141C32.8164 34.5494 32.8187 34.5106 32.8212 34.4719C32.9898 31.8168 33.5235 29.2987 34.2807 27.2439C34.7924 25.8553 35.3803 24.748 35.9759 23.9534C38.1352 26.7918 39.1434 30.6426 39.2775 34.5882ZM42.1009 34.5882H48.6244C48.0415 29.3153 44.231 25.0151 39.2123 23.7071C41.1428 26.9298 41.9838 30.8176 42.1009 34.5882ZM32.7893 23.7065C32.3535 24.4932 31.9671 25.3587 31.6321 26.2679C30.7721 28.6016 30.1884 31.3908 30.0042 34.293C29.9979 34.3912 29.9921 34.4896 29.9868 34.5882H23.3749C23.9578 29.3145 27.7695 25.0138 32.7893 23.7065Z" fill="#BD0F72"/>
</svg>
