<svg width="24" height="24" viewBox="0 0 24 24" fill="none" xmlns="http://www.w3.org/2000/svg">
<path d="M15.7333 13.6C14.6667 14.6667 14.6667 15.7333 13.6 15.7333C12.5333 15.7333 11.4667 14.6667 10.4 13.6C9.33333 12.5333 8.26667 11.4667 8.26667 10.4C8.26667 9.33333 9.33333 9.33333 10.4 8.26667C11.4667 7.2 8.26667 4 7.2 4C6.13333 4 4 7.2 4 7.2C4 9.33333 6.19733 13.664 8.26667 15.7333C10.336 17.8027 14.6667 20 16.8 20C16.8 20 20 17.8667 20 16.8C20 15.7333 16.8 12.5333 15.7333 13.6Z" fill="#BD0F72"/>
</svg>
