<svg width="23" height="24" viewBox="0 0 23 24" fill="none" xmlns="http://www.w3.org/2000/svg">
<path d="M2.82924 3.83332C2.82924 3.33332 3.24531 2.91666 3.74459 2.91666H10.3184V0.249999C10.3184 0.166666 10.2352 0 10.0688 0H0.499278C0.249639 0 0 0.249999 0 0.583331V19.0833C0 19.3333 0.249639 19.5833 0.499278 19.5833H2.82924V3.83332Z" fill="#004D6C"/>
<path d="M9.31719 17.6968C9.31719 13.7064 12.437 10.4968 16.3156 10.4968C17.1588 10.4968 18.0019 10.6703 18.7608 10.9305V8.39315L14.0706 3.73047H4.42674C4.00515 3.73047 3.7522 4.07746 3.7522 4.42445V21.6872C3.7522 22.121 4.08947 22.3812 4.42674 22.3812H11.0879C9.99173 21.2535 9.31719 19.6053 9.31719 17.6968Z" fill="#BD0F72"/>
<path d="M16.5554 11.1914C20.0784 11.1914 22.9999 14.0949 22.9999 17.5962C22.9999 21.0975 20.0784 24.001 16.5554 24.001C13.0324 24.001 10.1108 21.0975 10.1108 17.5962C10.1108 14.0949 12.9464 11.1914 16.5554 11.1914Z" fill="#E9E8E8"/>
<path d="M17.6724 17.8312H18.2739C18.5317 17.8312 18.7894 18.0019 18.9613 18.2581C19.1331 18.5143 18.9613 18.8559 18.7894 19.0267L16.8131 21.1616C16.7272 21.247 16.5553 21.3324 16.2975 21.3324C16.1257 21.3324 15.9538 21.247 15.782 21.0762L13.8057 19.0267C13.6338 18.8559 13.5479 18.5143 13.6338 18.2581C13.7197 18.0019 13.9775 17.8312 14.3212 17.8312H14.9227V14.9276C14.9227 14.4153 15.2664 13.9883 15.782 13.9883H16.8131C17.3287 13.9883 17.6724 14.4153 17.6724 14.9276V17.8312Z" fill="#BD0F72"/>
<g opacity="0.9">
<path opacity="0.9" d="M14.0706 8.39315H18.7607L14.0706 3.73047V8.39315Z" fill="#8E1F63"/>
</g>
<path d="M7.87641 16.9664H5.72823C5.55638 16.9664 5.38452 16.7956 5.38452 16.6248C5.38452 16.454 5.55638 16.2832 5.72823 16.2832H7.87641C8.04826 16.2832 8.22012 16.454 8.22012 16.6248C8.13419 16.7956 8.04826 16.9664 7.87641 16.9664Z" fill="white"/>
<path d="M11.1416 11.3297H5.81417C5.64231 11.3297 5.47046 11.1589 5.47046 10.9881C5.47046 10.8173 5.64231 10.6465 5.81417 10.6465H11.1416C11.3135 10.6465 11.4854 10.8173 11.4854 10.9881C11.4854 11.1589 11.3135 11.3297 11.1416 11.3297Z" fill="white"/>
<path d="M8.4779 14.148H5.72823C5.55638 14.148 5.38452 13.9772 5.38452 13.8064C5.38452 13.6356 5.55638 13.4648 5.72823 13.4648H8.4779C8.64975 13.4648 8.82161 13.6356 8.82161 13.8064C8.82161 13.9772 8.64975 14.148 8.4779 14.148Z" fill="white"/>
<path d="M8.4779 19.8687H5.72823C5.55638 19.8687 5.38452 19.6979 5.38452 19.5271C5.38452 19.3563 5.55638 19.1855 5.72823 19.1855H8.4779C8.64975 19.1855 8.82161 19.3563 8.82161 19.5271C8.82161 19.6979 8.64975 19.8687 8.4779 19.8687Z" fill="white"/>
<path d="M12.5165 8.5113H5.72823C5.55638 8.5113 5.38452 8.34051 5.38452 8.16971C5.38452 7.99892 5.55638 7.82812 5.72823 7.82812H12.5165C12.6883 7.82812 12.8602 7.99892 12.8602 8.16971C12.8602 8.34051 12.6883 8.5113 12.5165 8.5113Z" fill="white"/>
</svg>
