<svg width="134" height="138" viewBox="0 0 134 138" fill="none" xmlns="http://www.w3.org/2000/svg">
<path d="M132.798 48.7389C132.589 48.3852 132.111 48.4086 131.776 48.6474L92.3529 76.7874C92.013 77.03 91.8616 77.4579 91.9591 77.864C92.4075 79.7311 92.641 81.6442 92.6544 83.566C92.6916 86.6857 92.1248 89.781 90.9876 92.6818C90.8353 93.0703 90.9257 93.5148 91.2283 93.8022L131.313 131.872C131.95 132.477 133.002 132.026 133.002 131.147V49.5936C133.019 49.3305 132.967 49.0673 132.849 48.8314C132.833 48.7999 132.816 48.7691 132.798 48.7389Z" fill="#C6C6C6" stroke="#444444" stroke-linecap="round" stroke-linejoin="round"/>
<path d="M40.8649 77.3453C40.9662 76.9385 40.8168 76.5078 40.4766 76.2629L2.17129 48.6809C1.83952 48.442 1.36138 48.4337 1.17168 48.7959V48.7959C1.06515 48.9992 1.00643 49.2243 1 49.4538V130.769C1 131.646 2.04868 132.098 2.68646 131.496L41.914 94.4641C42.2279 94.1678 42.3143 93.7042 42.1427 93.3081C40.8085 90.2287 40.1193 86.9058 40.1207 83.5447C40.1103 81.4544 40.3605 79.3719 40.8649 77.3453Z" fill="#C6C6C6" stroke="#444444"/>
<path d="M67.4115 0.912922C67.0637 0.665828 66.5974 0.666641 66.2504 0.914943L4.62661 45.015C4.37662 45.1939 4.37582 45.5653 4.62503 45.7453V45.7453L41.7703 72.4887C42.3122 72.8789 43.0771 72.6381 43.3318 72.0208C45.1385 67.6408 48.1616 63.8577 52.056 61.1269C56.316 58.1397 61.4046 56.5617 66.6074 56.6146C71.8101 56.6674 76.8657 58.3484 81.0642 61.4215C84.8951 64.2255 87.8369 68.0601 89.5556 72.4654C89.8012 73.0949 90.5753 73.3476 91.1242 72.9536L129.261 45.5762V45.5762C129.51 45.3965 129.508 45.0255 129.258 44.8477L67.4115 0.912922Z" fill="#C6C6C6" stroke="#444444"/>
<path d="M89.6473 96.6859C89.1606 96.2256 88.3675 96.365 88.035 96.9465C85.9872 100.527 83.0847 103.555 79.5781 105.754C75.6914 108.191 71.2111 109.517 66.6239 109.587C62.0367 109.658 57.5179 108.47 53.5583 106.152C49.9739 104.055 46.9717 101.105 44.8136 97.572C44.4711 97.0113 43.6955 96.8869 43.218 97.3383L2.41699 135.908C2.23225 136.082 2.18871 136.379 2.40283 136.516V136.516C2.52582 136.595 2.66506 136.645 2.81007 136.662H130.871C130.932 136.662 130.992 136.658 131.05 136.641C131.133 136.617 131.211 136.581 131.283 136.534V136.534C131.451 136.425 131.423 136.191 131.277 136.054L89.6473 96.6859Z" fill="#666666" stroke="#444444"/>
<path d="M66.3417 107.356C79.5721 107.356 90.2975 96.6302 90.2975 83.3998C90.2975 70.1694 79.5721 59.4441 66.3417 59.4441C53.1113 59.4441 42.3859 70.1694 42.3859 83.3998C42.3859 96.6302 53.1113 107.356 66.3417 107.356Z" fill="#23516B"/>
<path d="M79.5932 77.1891L62.392 94.4189L52.6609 84.6878" stroke="white" stroke-width="3" stroke-linecap="round" stroke-linejoin="round"/>
<path d="M21.5 57.8605C21.5 58.1821 21.6546 58.484 21.9155 58.6719L41.68 72.9097C42.2207 73.2992 42.9841 73.0604 43.2401 72.4452C45.0649 68.0596 48.1046 64.2745 52.0137 61.5437C56.2876 58.558 61.3872 56.9816 66.6004 57.0346C71.8137 57.0876 76.8802 58.7674 81.0925 61.8394C84.9389 64.6445 87.8976 68.4825 89.6341 72.8952C89.8806 73.5218 90.6514 73.7729 91.1993 73.3813L111.42 58.9265C111.683 58.7388 111.839 58.4358 111.839 58.113V26.7466C111.839 26.4771 111.73 26.2191 111.537 26.0309L92.3126 7.27341C92.1258 7.09116 91.8752 6.98915 91.6143 6.98915H26.9073C25.4755 6.99659 24.1044 7.56867 23.092 8.58113C22.0795 9.59359 21.5074 10.9646 21.5 12.3964V57.8605Z" fill="#E8E8E8" stroke="#444444"/>
<path d="M32.0315 36.9699H101.052" stroke="#444444" stroke-linecap="round" stroke-linejoin="round"/>
<path d="M85.1702 53.5598H100.656" stroke="#444444" stroke-linecap="round" stroke-linejoin="round"/>
<path d="M32.0315 53.5598H46.3282" stroke="#444444" stroke-linecap="round" stroke-linejoin="round"/>
<path d="M32.2296 21.5973H73.5063" stroke="#444444" stroke-linecap="round" stroke-linejoin="round"/>
<path d="M110.391 26.7568H92.0322C91.756 26.7568 91.5322 26.533 91.5322 26.2568V8.37044C91.5322 7.92811 92.0643 7.70364 92.3811 8.01231L110.74 25.8987C111.061 26.2117 110.839 26.7568 110.391 26.7568Z" fill="#C6C6C6" stroke="#444444" stroke-linecap="round" stroke-linejoin="round"/>
</svg>
