<svg width="48" height="48" viewBox="0 0 48 48" fill="none" xmlns="http://www.w3.org/2000/svg">
<path d="M24 0C37.237 0 48 10.7659 48 23.9986C48 37.2312 37.237 47.9971 24 47.9971C10.763 47.9971 0 37.2369 0 23.9986C0 10.7602 10.7659 0 24 0Z" fill="#BD0F72"/>
<path fill-rule="evenodd" clip-rule="evenodd" d="M13.3502 13.3216C13.6291 13.0434 14.0808 13.0439 14.359 13.3229L34.6525 33.6676C34.9307 33.9465 34.9301 34.3982 34.6512 34.6764C34.3722 34.9547 33.9206 34.9541 33.6423 34.6752L13.3489 14.3304C13.0707 14.0515 13.0713 13.5998 13.3502 13.3216Z" fill="white"/>
<path fill-rule="evenodd" clip-rule="evenodd" d="M34.6512 13.3216C34.9301 13.5998 34.9307 14.0515 34.6525 14.3304L14.359 34.6752C14.0808 34.9541 13.6291 34.9547 13.3502 34.6764C13.0713 34.3982 13.0707 33.9465 13.3489 33.6676L33.6423 13.3229C33.9206 13.0439 34.3722 13.0434 34.6512 13.3216Z" fill="white"/>
</svg>
