<svg width="32" height="32" viewBox="0 0 32 32" fill="none" xmlns="http://www.w3.org/2000/svg">
<path d="M1 6H31V26H1V6Z" fill="#117663"/>
<path d="M13.4054 21.0157H18.5947C18.8016 20.9163 19.0026 20.805 19.1967 20.6824H12.8034C12.9974 20.805 13.1984 20.9163 13.4054 21.0157Z" fill="white"/>
<path d="M15.9999 21.6044C16.7581 21.6053 17.5096 21.4621 18.2143 21.1824H13.7856C14.4903 21.4621 15.2418 21.6053 15.9999 21.6044Z" fill="white"/>
<path d="M18.3333 18.974C17.4642 18.9754 16.6283 18.6411 15.9999 18.0407C15.3716 18.6411 14.5356 18.9754 13.6666 18.974H11.0349C11.1125 19.088 11.1937 19.1991 11.2786 19.3074H13.8229C14.6198 19.3086 15.3913 19.027 15.9999 18.5127C16.6086 19.027 17.3801 19.3086 18.1769 19.3074H20.7213C20.8064 19.1994 20.8876 19.0882 20.9649 18.974H18.3333Z" fill="white"/>
<path d="M12.4233 20.422H19.5767C19.6878 20.3389 19.7964 20.252 19.9027 20.1614H12.0973C12.2029 20.252 12.3115 20.3389 12.4233 20.422Z" fill="white"/>
<path d="M11.7287 19.8177H20.2713C20.325 19.763 20.378 19.7077 20.4297 19.651H11.5703C11.622 19.7077 11.675 19.763 11.7287 19.8177Z" fill="white"/>
<path d="M17.7333 14.448C17.7341 13.8651 17.5834 13.2921 17.2959 12.785C17.2351 12.9875 17.1277 13.1729 16.9823 13.3264C17.2485 13.8897 17.3539 14.5157 17.2868 15.1351C17.2197 15.7546 16.9827 16.3435 16.6019 16.8367C17.06 16.151 17.2517 15.3215 17.1408 14.5044C17.0299 13.6873 16.6242 12.9389 16 12.4C15.3757 12.9389 14.97 13.6873 14.8591 14.5044C14.7482 15.3215 14.9399 16.151 15.398 16.8367C15.017 16.3436 14.7798 15.7548 14.7124 15.1353C14.6451 14.5158 14.7502 13.8898 15.0163 13.3264C14.871 13.173 14.7635 12.9877 14.7026 12.7854C14.2935 13.5097 14.1659 14.3595 14.3442 15.1721C14.5226 15.9847 14.9944 16.703 15.6693 17.1894C15.7718 17.3063 15.8823 17.416 16 17.5177C16.1173 17.416 16.2277 17.3066 16.3303 17.19C16.7649 16.8771 17.1189 16.4652 17.3628 15.9884C17.6068 15.5116 17.7338 14.9836 17.7333 14.448Z" fill="white"/>
<path d="M18.2187 18.4333C17.984 18.4333 17.75 18.4089 17.5203 18.3606C17.6451 18.3743 17.7705 18.3812 17.896 18.3813C18.5811 18.3813 19.25 18.1732 19.8142 17.7846C20.3784 17.3959 20.8112 16.8451 21.0553 16.205C20.3842 15.9268 19.6498 15.8378 18.9317 15.9477C18.2136 16.0575 17.5393 16.362 16.982 16.828C17.352 16.4401 17.7968 16.1313 18.2895 15.9202C18.7822 15.7092 19.3126 15.6002 19.8487 15.6C19.9203 15.4614 20.0152 15.3361 20.1293 15.2296C20.0697 15.2266 20.0097 15.225 19.949 15.225C19.3487 15.2246 18.7561 15.3605 18.216 15.6224C17.6758 15.8843 17.2022 16.2654 16.8307 16.737L16 17.1143V17.6756C16.2577 17.9463 16.5592 18.1716 16.8917 18.3423V18.339C17.5603 18.6834 18.3247 18.7948 19.0638 18.6556C19.8029 18.5165 20.4744 18.1346 20.972 17.5706C20.8332 17.5624 20.6965 17.5329 20.5667 17.483C19.9376 18.0933 19.0952 18.4343 18.2187 18.4333Z" fill="white"/>
<path d="M15.1703 16.736C14.7988 16.2644 14.3252 15.8833 13.785 15.6214C13.2448 15.3595 12.6523 15.2236 12.052 15.224C11.9913 15.224 11.9313 15.224 11.8717 15.2287C11.9858 15.3354 12.0808 15.461 12.1523 15.6C12.6884 15.6002 13.2188 15.7092 13.7115 15.9202C14.2042 16.1313 14.649 16.4401 15.019 16.828C14.4617 16.362 13.7874 16.0575 13.0693 15.9477C12.3512 15.8379 11.6168 15.9268 10.9457 16.205C11.1898 16.8451 11.6226 17.396 12.1868 17.7846C12.751 18.1732 13.4199 18.3813 14.105 18.3813C14.2305 18.3812 14.3559 18.3743 14.4806 18.3607C13.9397 18.4747 13.379 18.4543 12.8477 18.3013C12.3164 18.1483 11.8308 17.8673 11.4333 17.483C11.3036 17.5328 11.167 17.5622 11.0283 17.5703C11.5259 18.1343 12.1974 18.5161 12.9365 18.6553C13.6756 18.7945 14.44 18.6831 15.1086 18.3387V18.342C15.4411 18.1713 15.7426 17.946 16.0003 17.6753V17.1143L15.1706 16.7353L15.1703 16.736Z" fill="white"/>
<path d="M12.8484 11.103L13.0707 11.8304L13.4334 11.719L12.8484 11.103Z" fill="#FDDE48"/>
<path d="M12.8484 11.103L13.4557 11.5607L13.2267 11.8644L12.8484 11.103Z" fill="#FDDE48"/>
<path d="M13.742 11.1187L13.1194 11.555L13.3374 11.8664L13.742 11.1187Z" fill="#FDDE48"/>
<path d="M13.7421 11.1187L13.4947 11.8377L13.1351 11.714L13.7421 11.1187Z" fill="#FDDE48"/>
<path d="M13.2713 12.4864L13.5186 11.7667L13.1593 11.6431L13.2713 12.4864Z" fill="#FDDE48"/>
<path d="M13.2714 12.4864L13.049 11.7591L13.4124 11.6481L13.2714 12.4864Z" fill="#FDDE48"/>
<path d="M14.0033 11.9737L13.396 11.5161L13.1667 11.8197L14.0033 11.9737Z" fill="#FDDE48"/>
<path d="M14.0033 11.9737L13.243 11.9604L13.2496 11.5801L14.0033 11.9737Z" fill="#FDDE48"/>
<path d="M12.5574 11.9484L13.3177 11.9617L13.3244 11.5814L12.5574 11.9484Z" fill="#FDDE48"/>
<path d="M12.5574 11.9484L13.1804 11.512L13.3984 11.8237L12.5574 11.9484Z" fill="#FDDE48"/>
<path d="M11.02 13.282L11.576 13.8L11.8354 13.522L11.02 13.282Z" fill="#FDDE48"/>
<path d="M11.02 13.282L11.7747 13.3746L11.7284 13.752L11.02 13.282Z" fill="#FDDE48"/>
<path d="M11.8021 12.8486L11.4808 13.5376L11.8251 13.7L11.8021 12.8486Z" fill="#FDDE48"/>
<path d="M11.802 12.8486L11.947 13.595L11.5737 13.6666L11.802 12.8486Z" fill="#FDDE48"/>
<path d="M12.0781 14.2683L11.9334 13.522L11.5604 13.5946L12.0781 14.2683Z" fill="#FDDE48"/>
<path d="M12.0781 14.2683L11.5218 13.7496L11.7811 13.4716L12.0781 14.2683Z" fill="#FDDE48"/>
<path d="M12.4558 13.4583L11.7001 13.3666L11.6538 13.744L12.4558 13.4583Z" fill="#FDDE48"/>
<path d="M12.4557 13.4583L11.7907 13.827L11.6064 13.4936L12.4557 13.4583Z" fill="#FDDE48"/>
<path d="M11.1907 14.1593L11.8557 13.7907L11.6714 13.4573L11.1907 14.1593Z" fill="#FDDE48"/>
<path d="M11.1907 14.1593L11.512 13.4703L11.8567 13.631L11.1907 14.1593Z" fill="#FDDE48"/>
<path d="M19.1517 11.103L18.9293 11.8304L18.5667 11.719L19.1517 11.103Z" fill="#FDDE48"/>
<path d="M19.1516 11.103L18.5443 11.5607L18.7733 11.8644L19.1516 11.103Z" fill="#FDDE48"/>
<path d="M18.258 11.1187L18.8807 11.555L18.6627 11.8667L18.258 11.1187Z" fill="#FDDE48"/>
<path d="M18.258 11.1187L18.5053 11.8377L18.8667 11.714L18.258 11.1187Z" fill="#FDDE48"/>
<path d="M18.7287 12.4864L18.4814 11.7667L18.8407 11.6431L18.7287 12.4864Z" fill="#FDDE48"/>
<path d="M18.7288 12.4864L18.9511 11.7591L18.5878 11.6481L18.7288 12.4864Z" fill="#FDDE48"/>
<path d="M17.9967 11.9737L18.604 11.5161L18.8327 11.8197L17.9967 11.9737Z" fill="#FDDE48"/>
<path d="M17.9967 11.9737L18.757 11.9604L18.7503 11.5801L17.9967 11.9737Z" fill="#FDDE48"/>
<path d="M19.4427 11.9484L18.6823 11.9617L18.6757 11.5814L19.4427 11.9484Z" fill="#FDDE48"/>
<path d="M19.4426 11.9484L18.8196 11.512L18.6016 11.8237L19.4426 11.9484Z" fill="#FDDE48"/>
<path d="M20.9799 13.282L20.4239 13.8L20.1646 13.522L20.9799 13.282Z" fill="#FDDE48"/>
<path d="M20.9799 13.282L20.2253 13.3746L20.2716 13.752L20.9799 13.282Z" fill="#FDDE48"/>
<path d="M20.1979 12.8486L20.5193 13.5376L20.1749 13.7L20.1979 12.8486Z" fill="#FDDE48"/>
<path d="M20.1979 12.8486L20.0529 13.595L20.4263 13.6676L20.1979 12.8486Z" fill="#FDDE48"/>
<path d="M19.922 14.2683L20.0666 13.522L20.4396 13.5946L19.922 14.2683Z" fill="#FDDE48"/>
<path d="M19.922 14.2683L20.4783 13.7496L20.219 13.4716L19.922 14.2683Z" fill="#FDDE48"/>
<path d="M19.5443 13.4583L20.2999 13.3666L20.3463 13.744L19.5443 13.4583Z" fill="#FDDE48"/>
<path d="M19.5443 13.4583L20.2093 13.827L20.3936 13.4936L19.5443 13.4583Z" fill="#FDDE48"/>
<path d="M20.8093 14.1593L20.1443 13.7907L20.3286 13.4573L20.8093 14.1593Z" fill="#FDDE48"/>
<path d="M20.8093 14.1593L20.4879 13.4703L20.1433 13.631L20.8093 14.1593Z" fill="#FDDE48"/>
<path d="M15.9999 9.77069L15.6603 10.816L16.1829 10.9857L15.9999 9.77069Z" fill="#FDDE48"/>
<path d="M16 9.77069L16.3397 10.816L15.817 10.9857L16 9.77069Z" fill="#FDDE48"/>
<path d="M17.0454 10.5304H15.9453V11.0797L17.0454 10.5304Z" fill="#FDDE48"/>
<path d="M17.0454 10.5304L16.156 11.1761L15.8333 10.7334L17.0454 10.5304Z" fill="#FDDE48"/>
<path d="M15.354 11.7591L16.243 11.1131L15.92 10.6684L15.354 11.7591Z" fill="#FDDE48"/>
<path d="M15.354 11.7591L15.6937 10.7137L16.2163 10.8834L15.354 11.7591Z" fill="#FDDE48"/>
<path d="M16.646 11.7591L16.3064 10.7137L15.7837 10.8834L16.646 11.7591Z" fill="#FDDE48"/>
<path d="M16.646 11.7591L15.757 11.1131L16.08 10.6684L16.646 11.7591Z" fill="#FDDE48"/>
<path d="M14.9547 10.5304L15.844 11.1761L16.1667 10.7334L14.9547 10.5304Z" fill="#FDDE48"/>
<path d="M14.9547 10.5304H16.0547V11.0797L14.9547 10.5304Z" fill="#FDDE48"/>
<rect x="0.5" y="5.5" width="31" height="21" stroke="#BD0F72" stroke-linejoin="round"/>
</svg>
