<svg width="32" height="32" viewBox="0 0 32 32" fill="none" xmlns="http://www.w3.org/2000/svg">
<path d="M31 6H1V26H31V6Z" fill="#EE1C25"/>
<path d="M5.99995 8L7.7633 13.427L3.14679 10.0729H8.85312L4.2366 13.427L5.99995 8Z" fill="#FFFF00"/>
<path d="M11.3913 7.07974L11.2243 8.97451L10.2457 7.34346L11.9961 8.08778L10.1425 8.51449L11.3913 7.07974Z" fill="#FFFF00"/>
<path d="M13.7177 9.30373L12.8286 10.9852L12.5596 9.10222L13.884 10.4675L12.01 10.1414L13.7177 9.30373Z" fill="#FFFF00"/>
<path d="M13.9394 12.6571L12.4416 13.8296L12.9642 12.0006L13.6164 13.7874L12.0385 12.7253L13.9394 12.6571Z" fill="#FFFF00"/>
<path d="M11.3528 14.0643L11.2645 15.9644L10.2191 14.3753L11.9989 15.0464L10.1646 15.5496L11.3528 14.0643Z" fill="#FFFF00"/>
<rect x="0.5" y="5.5" width="31" height="21" stroke="#BD0F72" stroke-linejoin="round"/>
</svg>
