<svg width="32" height="22" viewBox="0 0 32 22" fill="none" xmlns="http://www.w3.org/2000/svg">
<path d="M32 0H0V21.3333H32V0Z" fill="#DE2910"/>
<path d="M16.0003 10.6635C12.2563 9.08196 13.9153 4.20729 17.4936 4.45227C16.7697 4.82454 16.6648 5.51894 17.0784 6.16214C17.5406 6.88249 17.0357 8.04125 16.4096 8.32285C15.3809 8.78507 15.1747 10.0206 15.9978 10.6635H16.0003Z" fill="white"/>
<path d="M15.7967 7.14387L15.5862 7.47418L15.5101 7.08982L15.1304 6.99169L15.4724 6.80005L15.4486 6.40894L15.7362 6.67525L16.1007 6.53302L15.9368 6.88858L16.1856 7.1908L15.7967 7.14387Z" fill="#DE2910"/>
<path d="M16.0201 10.6225C15.5675 10.39 15.2023 9.90569 15.0434 9.3272C14.9537 8.99907 14.9329 8.65591 14.9823 8.31935C15.0318 7.98279 15.1504 7.66011 15.3307 7.37165L15.2535 7.3208C15.066 7.62015 14.9426 7.95511 14.8911 8.30454C14.8396 8.65398 14.861 9.0103 14.9541 9.35102C15.1223 9.96329 15.4949 10.4564 15.9778 10.7043L16.0201 10.6225Z" fill="#DE2910"/>
<path d="M16.0024 10.6645C16.3502 6.61618 21.499 6.68764 22.3719 10.1668C21.7941 9.59289 21.1015 9.70773 20.6172 10.2997C20.0753 10.9628 18.817 10.8398 18.3559 10.3317C17.5975 9.49617 16.3598 9.68177 16.0024 10.6635V10.6645Z" fill="white"/>
<path d="M19.2876 9.38428L18.9082 9.2865L19.2502 9.09521L19.2264 8.7041L19.5144 8.97041L19.8789 8.82819L19.7146 9.18375L19.9635 9.48632L19.5745 9.4401L19.3637 9.77041L19.2876 9.38428Z" fill="#DE2910"/>
<path d="M16.0479 10.6721C16.129 10.1697 16.4771 9.67298 16.9781 9.34303C17.2625 9.15591 17.5827 9.02985 17.9184 8.97281C18.2541 8.91577 18.598 8.929 18.9283 9.01165L18.951 8.92169C18.6082 8.83606 18.2514 8.8224 17.9031 8.88158C17.5548 8.94075 17.2225 9.07148 16.9272 9.26552C16.3971 9.61467 16.0429 10.1217 15.9565 10.6572L16.0479 10.6721Z" fill="#DE2910"/>
<path d="M16.0034 10.6685C19.9611 9.74829 21.484 14.667 18.4443 16.5725C18.8112 15.8461 18.488 15.2214 17.7752 14.9451C16.9773 14.6347 16.7053 13.3998 17.0463 12.8039C17.6063 11.8247 17.0463 10.7062 16.0034 10.6685Z" fill="white"/>
<path d="M18.2352 13.397L18.2114 13.0059L18.4991 13.2722L18.8639 13.1299L18.6996 13.4855L18.9485 13.7881L18.5599 13.7404L18.3494 14.0711L18.2726 13.6867L17.8936 13.5886L18.2352 13.397Z" fill="#DE2910"/>
<path d="M16.0098 10.714C16.5126 10.6361 17.0925 10.8132 17.5611 11.1879C17.8269 11.4007 18.0457 11.6662 18.2036 11.9678C18.3616 12.2694 18.4553 12.6005 18.4788 12.9401L18.5716 12.934C18.5471 12.5816 18.4498 12.238 18.2859 11.9251C18.1219 11.6121 17.8949 11.3365 17.6191 11.1157C17.1213 10.7193 16.5314 10.539 15.9956 10.6226L16.0098 10.714Z" fill="#DE2910"/>
<path d="M15.9998 10.6707C18.0976 14.1501 13.8907 17.1186 11.1387 14.8164C11.9433 14.9409 12.4364 14.441 12.4798 13.6787C12.5285 12.8253 13.6176 12.1853 14.291 12.324C15.3954 12.5519 16.2871 11.6747 15.9998 10.6707Z" fill="white"/>
<path d="M14.0941 13.6363L14.4586 13.4941L14.2943 13.8496L14.5432 14.1522L14.1521 14.1063L13.9437 14.4356L13.8666 14.0512L13.4868 13.9531L13.831 13.76L13.8072 13.3689L14.0941 13.6363Z" fill="#DE2910"/>
<path d="M15.958 10.6905C16.1876 11.1446 16.1983 11.7511 15.9868 12.3126C15.8665 12.6311 15.6816 12.9212 15.4436 13.1646C15.2056 13.4081 14.9197 13.5995 14.604 13.727L14.6396 13.813C14.9672 13.6809 15.264 13.4823 15.511 13.2296C15.758 12.977 15.9499 12.6759 16.0746 12.3453C16.2986 11.7511 16.2879 11.1328 16.0422 10.6489L15.958 10.6905Z" fill="#DE2910"/>
<path d="M15.9968 10.6667C13.3358 13.7373 9.21246 10.6532 10.5518 7.32446C10.682 8.12837 11.3099 8.44269 12.0494 8.24891C12.8775 8.03095 13.8233 8.87006 13.8983 9.55237C14.021 10.6742 15.1314 11.2516 15.9961 10.6674L15.9968 10.6667Z" fill="white"/>
<path d="M12.5868 9.77168L12.8357 10.0739L12.4467 10.0266L12.2362 10.3573L12.1601 9.97364L11.7808 9.8755L12.1228 9.68457L12.0986 9.29346L12.3866 9.55941L12.7511 9.41719L12.5868 9.77168Z" fill="#DE2910"/>
<path d="M15.9647 10.6339C15.6038 10.9927 15.0306 11.1904 14.4312 11.1626C14.0909 11.1469 13.7577 11.0607 13.4525 10.9095C13.1473 10.7584 12.8767 10.5455 12.658 10.2844L12.5869 10.3438C12.8138 10.6146 13.0944 10.8354 13.411 10.9923C13.7276 11.1491 14.0733 11.2386 14.4262 11.2551C15.0605 11.2846 15.645 11.0823 16.0298 10.6997L15.9647 10.6339Z" fill="#DE2910"/>
</svg>
