<svg width="72" height="72" viewBox="0 0 72 72" fill="none" xmlns="http://www.w3.org/2000/svg">
<path fill-rule="evenodd" clip-rule="evenodd" d="M15 16.4444C15 14.5216 15.974 12 18.5556 12H41.6667C43.2469 12 44.4919 12.7182 45.253 13.7752C45.9161 14.6962 46.1111 15.7214 46.1111 16.4444V21.7778H40.7778V17.3333H20.3333V54.656C20.3333 54.656 20.334 54.6617 20.3346 54.6661L40.6205 54.6667C40.6316 54.6482 40.6478 54.6176 40.6658 54.5711C40.7104 54.4557 40.7778 54.211 40.7778 53.7778V50.2222H46.1111V53.7778C46.1111 55.7906 45.4609 57.423 44.2912 58.5459C43.189 59.604 41.838 60 40.7778 60H20.3333C18.3975 60 16.9303 59.1337 16.0359 57.8915C15.2394 56.7852 15 55.5378 15 54.6667V16.4444Z" fill="#BD0F72"/>
<path d="M29.2227 40.4453V31.5564H46.1115V24.4453L57.6671 36.0009L46.1115 47.5564V40.4453H29.2227Z" fill="#BD0F72"/>
</svg>
