<svg width="132" height="132" viewBox="0 0 132 132" fill="none" xmlns="http://www.w3.org/2000/svg">
<path d="M61.5166 2H10.3358C5.75895 2 2 5.92068 2 10.6945V110.49C2 115.228 5.68934 119.076 10.2314 119.076H61.5166C62.2998 119.076 62.9436 118.404 62.9436 117.588V3.48841C62.9436 2.6716 62.2998 2 61.5166 2Z" fill="#666666" stroke="#444444" stroke-width="3" stroke-miterlimit="10" stroke-linecap="round" stroke-linejoin="round"/>
<path d="M105.922 129.998H25.1643C22.4991 129.998 20.3086 127.808 20.3086 125.143V25.1632C20.3086 22.498 22.4991 20.3075 25.1643 20.3075H83.8341L110.759 46.5939V125.143C110.778 127.808 108.587 129.998 105.922 129.998Z" fill="white" stroke="#444444" stroke-width="3" stroke-miterlimit="10" stroke-linecap="round" stroke-linejoin="round"/>
<path d="M83.8359 46.615H110.779L83.8359 20.3286V46.615Z" fill="#C6C6C6" stroke="#444444" stroke-width="3" stroke-miterlimit="10" stroke-linecap="round" stroke-linejoin="round"/>
<path d="M32.9453 63.387H98.1867" stroke="#444444" stroke-width="3" stroke-miterlimit="10" stroke-linecap="round" stroke-linejoin="round"/>
<path d="M32.7676 79.9468H98.009" stroke="#444444" stroke-width="3" stroke-miterlimit="10" stroke-linecap="round" stroke-linejoin="round"/>
<path d="M32.5898 113.277H52.3777" stroke="#444444" stroke-width="3" stroke-miterlimit="10" stroke-linecap="round" stroke-linejoin="round"/>
<path d="M32.5898 96.3212H62.1803" stroke="#444444" stroke-width="3" stroke-miterlimit="10" stroke-linecap="round" stroke-linejoin="round"/>
<path d="M52.377 46.6125H71.964" stroke="#444444" stroke-width="3" stroke-miterlimit="10" stroke-linecap="round" stroke-linejoin="round"/>
<path d="M36.639 51.5787L36.6572 49.6802C31.8016 49.3151 29.8666 46.4492 29.8301 43.638H33.4445C33.5357 45.1531 34.631 46.3761 36.712 46.65V40.4617L35.4342 40.1514C32.7325 39.549 30.2499 37.8513 30.2499 34.456C30.2499 30.8416 33.0611 28.8884 36.6572 28.5415V26.5701H38.9938V28.5415C42.6995 28.9249 45.2186 31.2067 45.2733 34.4195H41.7502C41.6955 33.0504 40.6915 31.8091 38.9573 31.5353V37.3584L40.2169 37.6505C43.3019 38.3442 45.6749 39.8958 45.6749 43.4372C45.6749 47.0881 42.9915 49.2603 38.9756 49.6437V51.5787H36.639ZM36.1644 36.7195C36.3287 36.7743 36.5112 36.8473 36.712 36.8838V31.517C35.1239 31.7178 33.9556 32.6488 33.9556 34.1822C33.9556 35.3322 34.6858 36.2084 36.1644 36.7195ZM39.3224 40.9728C39.2129 40.9363 39.0851 40.9181 38.9756 40.8816V46.65C40.7645 46.5039 42.024 45.4452 42.024 43.7658C42.0058 42.4514 41.2574 41.5387 39.3224 40.9728Z" fill="#444444"/>
<path d="M129.377 105.958L73.8465 129.871C73.0798 130.2 72.1671 129.853 71.8385 129.068L62.3462 107.053C62.0176 106.286 62.3645 105.374 63.1494 105.045L118.679 81.1318C119.446 80.8033 120.359 81.1501 120.687 81.935L130.18 103.95C130.508 104.717 130.143 105.629 129.377 105.958Z" fill="#004D6C" stroke="#444444" stroke-width="3" stroke-miterlimit="10" stroke-linecap="round" stroke-linejoin="round"/>
<path d="M71.6211 108.386L77.4625 105.867C78.3387 105.484 79.1602 105.356 79.9634 105.429C80.7483 105.52 81.442 105.794 82.0261 106.251C82.6103 106.707 83.0666 107.328 83.3952 108.076C83.7055 108.806 83.8333 109.555 83.7603 110.303C83.6873 111.052 83.4135 111.745 82.9389 112.366C82.4642 112.986 81.7888 113.498 80.9126 113.863L77.7363 115.232L79.6531 119.704L76.9879 120.854L71.6211 108.386ZM79.5618 108.113C79.0689 107.912 78.5578 107.93 78.0284 108.149L75.199 109.372L76.8054 113.114L79.6348 111.891C80.1642 111.654 80.5293 111.307 80.7301 110.796C80.9309 110.303 80.8944 109.774 80.657 109.226C80.4197 108.678 80.0547 108.295 79.5618 108.113Z" fill="#CCD3D1"/>
<path d="M95.8079 110.212L90.2403 112.621L90.3863 115.104L87.4656 116.363L86.918 101.815L90.2403 100.373L100.426 110.778L97.5238 112.019L95.8079 110.212ZM89.9665 110.193L94.165 108.386L89.6379 103.549L89.9665 110.193Z" fill="#CCD3D1"/>
<path d="M97.707 97.1412L100.354 96.0094L105.721 108.477L103.056 109.627L97.707 97.1412Z" fill="#CCD3D1"/>
<path d="M104.334 94.2926L109.244 92.175C110.54 91.6091 111.8 91.3718 113.023 91.4631C114.246 91.5544 115.341 91.956 116.309 92.6496C117.276 93.3433 118.025 94.3291 118.554 95.5521C119.084 96.7934 119.266 97.9982 119.12 99.1847C118.956 100.371 118.499 101.43 117.733 102.379C116.966 103.329 115.926 104.077 114.629 104.643L109.701 106.779L104.334 94.2926ZM113.699 102.525C114.502 102.178 115.104 101.704 115.542 101.083C115.98 100.463 116.218 99.7689 116.254 99.0205C116.291 98.272 116.163 97.5053 115.834 96.7569C115.323 95.5521 114.538 94.7124 113.534 94.2378C112.512 93.7632 111.398 93.7997 110.157 94.3291L107.894 95.2965L111.435 103.511L113.699 102.525Z" fill="#CCD3D1"/>
</svg>
