<svg width="72" height="72" viewBox="0 0 72 72" fill="none" xmlns="http://www.w3.org/2000/svg">
<path d="M36 60C49.2548 60 60 49.2548 60 36C60 22.7452 49.2548 12 36 12C22.7452 12 12 22.7452 12 36C12 49.2548 22.7452 60 36 60Z" fill="#BD0F72"/>
<path d="M44.2358 26.8995L33.3387 37.7966C33.2002 37.9348 33.0126 38.0125 32.8169 38.0125C32.6213 38.0125 32.4336 37.9348 32.2952 37.7966L27.7673 33.2674C27.6285 33.1294 27.4406 33.0519 27.2449 33.0519C27.0491 33.0519 26.8613 33.1294 26.7224 33.2674L23.7862 36.2036C23.648 36.3421 23.5703 36.5297 23.5703 36.7254C23.5703 36.921 23.648 37.1087 23.7862 37.2471L32.2911 45.752C32.3596 45.8207 32.4409 45.8751 32.5304 45.9122C32.62 45.9494 32.7159 45.9685 32.8129 45.9685C32.9098 45.9685 33.0058 45.9494 33.0953 45.9122C33.1848 45.8751 33.2662 45.8207 33.3346 45.752L48.2115 30.8752C48.3497 30.7368 48.4274 30.5491 48.4274 30.3534C48.4274 30.1578 48.3497 29.9701 48.2115 29.8317L45.2752 26.8955C45.1364 26.759 44.9493 26.6828 44.7547 26.6836C44.56 26.6844 44.3735 26.762 44.2358 26.8995Z" fill="white"/>
</svg>
