<svg width="24" height="24" viewBox="0 0 24 24" fill="none" xmlns="http://www.w3.org/2000/svg">
<path d="M17.8735 7.7575L14.808 4.76587V7.7575H17.8735Z" fill="#8E0360"/>
<path d="M14.6131 8.14433C14.5618 8.14433 14.5126 8.12395 14.4763 8.08767C14.44 8.05139 14.4197 8.00219 14.4197 7.95088V4.5H6.47982C6.35262 4.5002 6.2307 4.55082 6.14076 4.64076C6.05082 4.7307 6.0002 4.85262 6 4.97982V18.8412C6.0002 18.9683 6.05084 19.0902 6.1408 19.18C6.23077 19.2698 6.35269 19.3203 6.47982 19.3203H17.6756C17.8027 19.3203 17.9246 19.2698 18.0146 19.18C18.1045 19.0902 18.1552 18.9683 18.1554 18.8412V8.14433H14.6131Z" fill="#BD0F72"/>
<path d="M7.33 15V11.665H8.89C9.24 11.665 9.51334 11.7683 9.71 11.975C9.91 12.1783 10.01 12.4333 10.01 12.74C10.01 13.0433 9.91 13.2966 9.71 13.5C9.51 13.7033 9.23667 13.805 8.89 13.805H8.04V15H7.33ZM9.145 13.07C9.23834 12.9833 9.285 12.8716 9.285 12.735C9.285 12.5983 9.23834 12.4883 9.145 12.405C9.05167 12.3183 8.935 12.275 8.795 12.275H8.04V13.195H8.795C8.93834 13.195 9.055 13.1533 9.145 13.07Z" fill="white"/>
<path d="M10.4501 15V11.665H11.7651C12.2885 11.665 12.7135 11.8183 13.0401 12.125C13.3701 12.4316 13.5351 12.835 13.5351 13.335C13.5351 13.835 13.3718 14.2383 13.0451 14.545C12.7185 14.8483 12.2918 15 11.7651 15H10.4501ZM11.1601 14.375H11.7651C12.0851 14.375 12.3385 14.275 12.5251 14.075C12.7151 13.875 12.8101 13.6283 12.8101 13.335C12.8101 13.0283 12.7185 12.7783 12.5351 12.585C12.3518 12.3883 12.0951 12.29 11.7651 12.29H11.1601V14.375Z" fill="white"/>
<path d="M14.039 15V11.665H16.399V12.275H14.749V13H16.364V13.61H14.749V15H14.039Z" fill="white"/>
</svg>
