<svg width="72" height="72" viewBox="0 0 72 72" fill="none" xmlns="http://www.w3.org/2000/svg">
<path d="M47.383 21.7056L38.2461 12.7891V21.7056H47.383Z" fill="#8E0360"/>
<path d="M37.6689 22.8597C37.5164 22.859 37.3703 22.798 37.2627 22.69C37.1551 22.5819 37.0946 22.4356 37.0946 22.283V12H13.4205C13.0433 12.0025 12.6823 12.1539 12.4163 12.4213C12.1502 12.6886 12.0006 13.0503 12 13.4275V54.7355C12.0006 55.1145 12.1515 55.4778 12.4195 55.7458C12.6875 56.0138 13.0508 56.1647 13.4298 56.1653H46.7917C47.1707 56.1647 47.534 56.0138 47.802 55.7458C48.0701 55.4778 48.2209 55.1145 48.2215 54.7355V22.8573L37.6689 22.8597Z" fill="#BD0F72"/>
<path fill-rule="evenodd" clip-rule="evenodd" d="M16.2383 28.6758C16.2383 28.4169 16.4482 28.207 16.7071 28.207H43.6605C43.9194 28.207 44.1293 28.4169 44.1293 28.6758C44.1293 28.9347 43.9194 29.1446 43.6605 29.1446H16.7071C16.4482 29.1446 16.2383 28.9347 16.2383 28.6758Z" fill="white"/>
<path fill-rule="evenodd" clip-rule="evenodd" d="M16.1641 35.5196C16.1641 35.2607 16.3739 35.0508 16.6329 35.0508H43.5863C43.8452 35.0508 44.0551 35.2607 44.0551 35.5196C44.0551 35.7785 43.8452 35.9884 43.5863 35.9884H16.6329C16.3739 35.9884 16.1641 35.7785 16.1641 35.5196Z" fill="white"/>
<path fill-rule="evenodd" clip-rule="evenodd" d="M16.2383 42.2852C16.2383 42.0263 16.4482 41.8164 16.7071 41.8164H32.8266C33.0855 41.8164 33.2954 42.0263 33.2954 42.2852C33.2954 42.5441 33.0855 42.754 32.8266 42.754H16.7071C16.4482 42.754 16.2383 42.5441 16.2383 42.2852Z" fill="white"/>
<path fill-rule="evenodd" clip-rule="evenodd" d="M16.1641 49.1289C16.1641 48.87 16.3739 48.6602 16.6329 48.6602H32.8274C33.0863 48.6602 33.2962 48.87 33.2962 49.1289C33.2962 49.3878 33.0863 49.5977 32.8274 49.5977H16.6329C16.3739 49.5977 16.1641 49.3878 16.1641 49.1289Z" fill="white"/>
<path fill-rule="evenodd" clip-rule="evenodd" d="M16.2383 21.7383C16.2383 21.4794 16.4482 21.2695 16.7071 21.2695H32.8266C33.0855 21.2695 33.2954 21.4794 33.2954 21.7383C33.2954 21.9972 33.0855 22.2071 32.8266 22.2071H16.7071C16.4482 22.2071 16.2383 21.9972 16.2383 21.7383Z" fill="white"/>
<path d="M46.7432 59.8225C52.7434 59.8225 57.6076 54.9584 57.6076 48.9581C57.6076 42.9579 52.7434 38.0938 46.7432 38.0938C40.743 38.0938 35.8789 42.9579 35.8789 48.9581C35.8789 54.9584 40.743 59.8225 46.7432 59.8225Z" fill="white"/>
<path fill-rule="evenodd" clip-rule="evenodd" d="M46.7433 38.2696C40.8401 38.2696 36.0547 43.055 36.0547 48.9581C36.0547 54.8612 40.8401 59.6466 46.7433 59.6466C52.6464 59.6466 57.4318 54.8612 57.4318 48.9581C57.4318 43.055 52.6464 38.2696 46.7433 38.2696ZM35.7031 48.9581C35.7031 42.8608 40.646 37.918 46.7433 37.918C52.8406 37.918 57.7834 42.8608 57.7834 48.9581C57.7834 55.0554 52.8406 59.9982 46.7433 59.9982C40.646 59.9982 35.7031 55.0554 35.7031 48.9581Z" fill="#23516B"/>
<path fill-rule="evenodd" clip-rule="evenodd" d="M53.1175 43.3382C53.5305 43.6505 53.6122 44.2385 53.2999 44.6515L46.0335 54.2618C45.8551 54.4978 45.5757 54.6358 45.2798 54.6339C44.984 54.6321 44.7063 54.4907 44.5308 54.2525L41.2492 49.799C40.9421 49.3821 41.031 48.7952 41.4479 48.488C41.8648 48.1808 42.4517 48.2698 42.7589 48.6866L45.2953 52.1289L51.8041 43.5206C52.1164 43.1076 52.7044 43.0259 53.1175 43.3382Z" fill="#BD0F72"/>
</svg>
