<svg width="72" height="72" viewBox="0 0 72 72" fill="none" xmlns="http://www.w3.org/2000/svg">
<path d="M34.6566 15.7734L12.2072 54.6589C12.0712 54.8953 11.9998 55.1633 12 55.436C12.0003 55.7088 12.0722 55.9766 12.2087 56.2128C12.3451 56.4489 12.5413 56.645 12.7774 56.7815C13.0136 56.9179 13.2815 56.9898 13.5542 56.99H58.453C58.7249 56.9885 58.9917 56.9158 59.2267 56.7791C59.4618 56.6423 59.6569 56.4464 59.7926 56.2107C59.9282 55.975 59.9998 55.7079 60 55.436C60.0002 55.164 59.9292 54.8968 59.7939 54.6609L37.3445 15.7754C37.2082 15.5398 37.0123 15.3441 36.7765 15.208C36.5408 15.0719 36.2734 15.0002 36.0011 15C35.7289 14.9998 35.4614 15.0711 35.2254 15.2069C34.9895 15.3426 34.7933 15.538 34.6566 15.7734Z" fill="#BD0F72"/>
<path d="M36.0006 46.4324C36.4943 46.4268 36.9785 46.568 37.392 46.838C37.8054 47.1079 38.1293 47.4946 38.3228 47.9488C38.5162 48.4031 38.5704 48.9046 38.4785 49.3897C38.3866 49.8749 38.1528 50.3218 37.8066 50.6739C37.4604 51.026 37.0175 51.2673 36.534 51.3674C36.0505 51.4675 35.5482 51.4218 35.0907 51.2361C34.6332 51.0504 34.2412 50.733 33.9642 50.3242C33.6873 49.9154 33.538 49.4336 33.5352 48.9399C33.5356 48.2822 33.7941 47.651 34.2552 47.1821C34.7163 46.7131 35.343 46.4439 36.0006 46.4324ZM33.5853 30.4492H38.3557L37.7444 44.3879H34.2668L33.5853 30.4492Z" fill="white"/>
</svg>
