<svg width="448" height="454" viewBox="0 0 448 454" fill="none" xmlns="http://www.w3.org/2000/svg">
<path d="M176.463 400.21C273.921 426.323 374.096 368.488 400.21 271.03C426.324 173.572 368.488 73.397 271.03 47.2832C173.572 21.1694 73.397 79.0053 47.2832 176.463C21.1694 273.921 79.0053 374.096 176.463 400.21Z" fill="#AB3171" stroke="#212322" stroke-width="4" stroke-miterlimit="10" stroke-linecap="round" stroke-linejoin="round"/>
<path d="M182.915 379.862C268.803 402.876 357.098 351.861 380.127 265.918C403.155 179.975 352.197 91.6473 266.308 68.6335C180.419 45.6197 92.1247 96.6342 69.0963 182.578C46.0678 268.521 97.0261 356.848 182.915 379.862Z" fill="#23516B" stroke="#212322" stroke-width="4" stroke-miterlimit="10" stroke-linecap="round" stroke-linejoin="round"/>
<path d="M182.523 380.151L225.023 222L271.523 378.156C271.523 378.156 235.523 392.125 182.523 380.151Z" fill="#2778A6" stroke="#212322" stroke-width="3"/>
<path d="M69.3027 182.632L380.333 265.973" stroke="#212322" stroke-width="4" stroke-miterlimit="10" stroke-linecap="round" stroke-linejoin="round"/>
<path d="M265.566 68.4346L182.173 379.663" stroke="#212322" stroke-width="4" stroke-miterlimit="10" stroke-linecap="round" stroke-linejoin="round"/>
<path d="M177.965 70.2388L270.888 378.655" stroke="#212322" stroke-width="4" stroke-miterlimit="10" stroke-linecap="round" stroke-linejoin="round"/>
<path d="M378.328 176.965L71.1912 270.739" stroke="#212322" stroke-width="4" stroke-miterlimit="10" stroke-linecap="round" stroke-linejoin="round"/>
<path d="M108.182 112.77L340.837 335.541" stroke="#212322" stroke-width="4" stroke-miterlimit="10" stroke-linecap="round" stroke-linejoin="round"/>
<path d="M335.124 107.091L113.885 339.857" stroke="#212322" stroke-width="4" stroke-miterlimit="10" stroke-linecap="round" stroke-linejoin="round"/>
<path d="M223.958 107.379L219.725 107.379L219.725 91.0605L214.671 92.6279L214.671 89.1855L223.504 86.0215L223.958 86.0215L223.958 107.379Z" fill="#212322"/>
<path d="M286.279 127.077L275.941 116.739L277.992 114.689L288.071 114.367C289.472 114.305 290.605 114.16 291.468 113.932C292.338 113.711 293.018 113.356 293.508 112.866C294.178 112.196 294.534 111.502 294.575 110.784C294.624 110.059 294.334 109.382 293.705 108.753C293.029 108.077 292.259 107.776 291.395 107.852C290.546 107.928 289.742 108.346 288.982 109.106L285.978 106.102C286.897 105.183 287.953 104.562 289.148 104.237C290.349 103.92 291.565 103.947 292.794 104.32C294.03 104.686 295.155 105.377 296.17 106.392C297.724 107.946 298.556 109.523 298.667 111.125C298.784 112.734 298.163 114.219 296.802 115.579C296.057 116.325 295.104 116.891 293.944 117.278C292.783 117.665 291.219 117.903 289.251 117.993L282.208 118.179L288.692 124.663L286.279 127.077Z" fill="#212322"/>
<path d="M334.644 153.011L335.719 154.994C336.231 155.938 336.847 156.509 337.566 156.708C338.285 156.907 339.035 156.795 339.816 156.371C340.571 155.961 341.036 155.415 341.21 154.731C341.388 154.057 341.263 153.325 340.835 152.535C340.448 151.823 339.927 151.333 339.272 151.067C338.625 150.796 337.988 150.83 337.361 151.17L335.342 147.449C336.321 146.918 337.339 146.705 338.395 146.809C339.465 146.918 340.475 147.325 341.425 148.032C342.38 148.747 343.167 149.676 343.786 150.817C344.862 152.8 345.228 154.612 344.885 156.254C344.551 157.891 343.551 159.161 341.886 160.064C341.028 160.53 340.096 160.696 339.091 160.564C338.086 160.431 337.16 160.045 336.312 159.405C336.507 160.666 336.367 161.758 335.891 162.683C335.42 163.617 334.669 164.363 333.639 164.921C331.974 165.825 330.308 165.94 328.643 165.265C326.982 164.6 325.609 163.267 324.524 161.267C323.509 159.396 323.171 157.596 323.511 155.867C323.855 154.147 324.839 152.847 326.461 151.967L328.48 155.688C327.776 156.07 327.343 156.644 327.181 157.409C327.023 158.184 327.154 158.957 327.573 159.73C328.052 160.614 328.659 161.179 329.393 161.426C330.14 161.676 330.899 161.592 331.672 161.172C333.543 160.157 333.92 158.62 332.802 156.559L331.734 154.589L334.644 153.011Z" fill="#212322"/>
<path d="M345.156 229.119L345.147 231.536L341.734 231.523L341.743 229.106L337.128 229.089L337.144 224.856L341.758 224.873L341.79 216.128L344.457 215.947L358.472 224.89L358.456 229.168L345.156 229.119ZM345.189 220.169L345.171 224.885L352.701 224.913L352.218 224.633L345.189 220.169Z" fill="#212322"/>
<path d="M336.243 280.496L345.038 286.951L339.097 297.324L336.034 295.569L340.249 288.209L336.532 285.473C336.499 286.613 336.2 287.674 335.637 288.657C334.628 290.42 333.29 291.488 331.624 291.862C329.958 292.236 328.142 291.86 326.176 290.734C324.981 290.05 324.055 289.181 323.397 288.129C322.743 287.091 322.422 285.951 322.436 284.709C322.457 283.472 322.835 282.214 323.568 280.935C324.208 279.816 325.027 278.906 326.025 278.206C327.031 277.511 328.105 277.119 329.247 277.03C330.385 276.95 331.489 277.194 332.559 277.762L330.477 281.397C329.662 281.032 328.908 280.954 328.213 281.164C327.523 281.388 326.964 281.872 326.537 282.618C326.061 283.449 325.991 284.258 326.327 285.047C326.672 285.841 327.39 286.551 328.484 287.177C329.534 287.779 330.488 287.981 331.343 287.785C332.198 287.588 332.898 287.015 333.441 286.066C333.941 285.193 334.118 284.354 333.971 283.55L333.844 283.005L336.243 280.496Z" fill="#212322"/>
<path d="M295.36 345.696L293.661 342.651L294.02 342.451C295.677 341.493 296.782 340.307 297.334 338.891C297.878 337.481 297.834 335.968 297.201 334.353C296.773 335.911 295.805 337.111 294.295 337.953C292.675 338.857 291.063 338.995 289.461 338.368C287.859 337.741 286.53 336.481 285.474 334.588C284.798 333.376 284.451 332.133 284.433 330.857C284.406 329.586 284.723 328.409 285.382 327.326C286.033 326.247 286.964 325.37 288.175 324.695C290.136 323.6 292.103 323.398 294.075 324.087C296.039 324.781 297.656 326.266 298.926 328.544L299.668 329.874C300.796 331.895 301.41 333.89 301.512 335.857C301.61 337.837 301.183 339.646 300.229 341.285C299.272 342.937 297.854 344.293 295.974 345.353L295.36 345.696ZM293.765 334.357C294.362 334.024 294.816 333.564 295.126 332.978C295.441 332.4 295.571 331.79 295.516 331.15L294.888 330.024C294.198 328.788 293.415 327.955 292.539 327.527C291.667 327.107 290.792 327.143 289.914 327.633C289.121 328.075 288.655 328.743 288.516 329.637C288.373 330.544 288.58 331.496 289.137 332.494C289.703 333.509 290.407 334.19 291.249 334.536C292.091 334.883 292.93 334.823 293.765 334.357Z" fill="#212322"/>
<path d="M216.571 354.956L224.818 336.001L229.286 336.001L221.024 353.901L231.63 353.901L231.63 357.329L216.571 357.329L216.571 354.956Z" fill="#212322"/>
<path d="M117.967 287.191C119.432 287.687 120.497 288.593 121.163 289.909C122.013 291.591 122.118 293.228 121.479 294.821C120.83 296.418 119.526 297.712 117.565 298.703C116.318 299.333 115.04 299.64 113.73 299.623C112.406 299.603 111.21 299.25 110.142 298.565C109.064 297.884 108.217 296.933 107.601 295.713C106.966 294.458 106.716 293.184 106.851 291.89C106.985 290.597 107.504 289.383 108.407 288.248C109.311 287.113 110.518 286.157 112.03 285.382L113.429 284.675C116.602 283.072 119.493 282.601 122.103 283.262C124.714 283.923 126.811 285.67 128.395 288.502L128.878 289.424L125.727 291.016L125.291 290.186C123.482 286.975 121.041 285.977 117.967 287.191ZM117.804 290.441C117.496 289.831 117.075 289.387 116.541 289.11C116.002 288.824 115.453 288.68 114.894 288.678L113.339 289.464C112.057 290.112 111.187 290.858 110.728 291.703C110.269 292.548 110.246 293.38 110.66 294.199C111.043 294.958 111.707 295.405 112.651 295.54C113.586 295.68 114.577 295.486 115.623 294.957C116.66 294.433 117.395 293.766 117.828 292.956C118.248 292.142 118.24 291.304 117.804 290.441Z" fill="#212322"/>
<path d="M104.918 228.917L105.469 233.115L89.2895 235.239L91.5014 240.046L88.0884 240.494L83.8014 232.148L83.7423 231.698L104.918 228.917ZM93.4021 208.948C96.3262 208.564 98.6424 208.875 100.35 209.882C102.059 210.889 103.066 212.559 103.372 214.893C103.675 217.197 103.146 219.059 101.786 220.479C100.426 221.898 98.3295 222.809 95.4963 223.211L91.6039 223.722C88.6508 224.109 86.3292 223.794 84.6391 222.774C82.9479 221.746 81.9509 220.079 81.6484 217.775C81.3458 215.47 81.8746 213.608 83.2345 212.188C84.5848 210.77 86.6766 209.86 89.5097 209.459L93.4021 208.948ZM89.6832 213.706C87.9307 213.936 86.6892 214.345 85.9588 214.933C85.2174 215.513 84.9135 216.312 85.047 217.328C85.1766 218.316 85.6551 218.997 86.4823 219.371C87.2985 219.736 88.5171 219.828 90.1378 219.644L95.2793 218.969C97.0028 218.743 98.2552 218.342 99.0366 217.767C99.807 217.183 100.124 216.373 99.9881 215.337C99.8534 214.311 99.3543 213.623 98.4909 213.273C97.6275 212.924 96.3667 212.848 94.7084 213.046L89.6832 213.706Z" fill="#212322"/>
<path d="M114.519 172.012L112.348 175.646L98.3397 167.277L97.0932 172.419L94.138 170.653L95.9523 161.448L96.1852 161.058L114.519 172.012ZM123.355 157.224L121.184 160.858L107.175 152.489L105.929 157.631L102.974 155.865L104.788 146.66L105.021 146.27L123.355 157.224Z" fill="#212322"/>
<path d="M155.034 128.613L151.401 130.786L143.024 116.782L139.492 120.721L137.725 117.766L143.681 110.517L144.071 110.284L155.034 128.613ZM173.539 117.545L160.993 125.049L159.504 122.56L161.651 112.708C161.932 111.333 162.068 110.2 162.057 109.307C162.055 108.409 161.876 107.663 161.52 107.068C161.034 106.255 160.448 105.741 159.761 105.525C159.07 105.302 158.343 105.418 157.58 105.874C156.759 106.365 156.28 107.039 156.143 107.894C156.01 108.737 156.219 109.619 156.77 110.541L153.124 112.721C152.457 111.606 152.112 110.43 152.089 109.192C152.074 107.95 152.397 106.778 153.059 105.677C153.715 104.567 154.659 103.644 155.891 102.907C157.777 101.779 159.51 101.357 161.091 101.641C162.68 101.919 163.968 102.884 164.955 104.535C165.497 105.44 165.814 106.503 165.906 107.722C165.998 108.941 165.847 110.516 165.454 112.447L163.917 119.323L171.787 114.616L173.539 117.545Z" fill="#212322"/>
<path d="M155.026 335.127C155.677 334.322 156.456 333.771 157.362 333.474C158.268 333.177 159.224 333.128 160.231 333.327C159.74 332.289 159.535 331.238 159.617 330.174C159.693 329.117 160.102 328.13 160.845 327.211C162.037 325.738 163.481 324.978 165.177 324.93C166.867 324.891 168.574 325.568 170.297 326.962C172.021 328.356 173.041 329.891 173.356 331.565C173.672 333.24 173.238 334.81 172.052 336.276C171.309 337.194 170.426 337.805 169.402 338.108C168.379 338.41 167.315 338.429 166.211 338.164C166.616 339.107 166.768 340.052 166.667 341.001C166.558 341.943 166.178 342.816 165.527 343.621C164.385 345.033 163.005 345.776 161.388 345.85C159.765 345.931 158.145 345.317 156.527 344.009C154.918 342.707 153.98 341.258 153.714 339.661C153.434 338.066 153.872 336.555 155.026 335.127ZM163.955 330.122C163.371 330.843 163.113 331.589 163.181 332.359C163.248 333.13 163.635 333.801 164.341 334.372C165.04 334.937 165.773 335.172 166.541 335.077C167.302 334.99 167.978 334.581 168.567 333.852C169.139 333.146 169.394 332.411 169.334 331.647C169.274 330.882 168.88 330.205 168.151 329.616C167.437 329.038 166.71 328.796 165.97 328.888C165.222 328.974 164.55 329.385 163.955 330.122ZM158.447 337.63C157.925 338.275 157.678 338.93 157.706 339.593C157.729 340.265 158.051 340.852 158.674 341.356C159.289 341.853 159.921 342.05 160.569 341.947C161.218 341.844 161.813 341.458 162.353 340.79C162.888 340.129 163.147 339.46 163.13 338.781C163.114 338.102 162.795 337.511 162.172 337.007C161.55 336.504 160.909 336.318 160.249 336.45C159.582 336.576 158.981 336.969 158.447 337.63Z" fill="#212322"/>
<circle cx="269" cy="58" r="6" fill="#F0CC47"/>
<circle cx="342" cy="99" r="6" fill="#F0CC47"/>
<circle r="6" transform="matrix(-1 0 0 1 175 59)" fill="#F0CC47"/>
<circle r="6" transform="matrix(-1 0 0 1 224 52)" fill="#F0CC47"/>
<circle r="6" transform="matrix(-1 0 0 1 309 73)" fill="#F0CC47"/>
<circle r="6" transform="matrix(-1 0 0 1 369 132)" fill="#F0CC47"/>
<circle r="6" transform="matrix(-1 0 0 1 396 224)" fill="#F0CC47"/>
<circle r="6" transform="matrix(-1 0 0 1 375 306)" fill="#F0CC47"/>
<circle r="6" transform="matrix(-1 0 0 1 315 370)" fill="#F0CC47"/>
<circle r="6" transform="matrix(-1 0 0 1 137 372)" fill="#F0CC47"/>
<circle r="6" transform="matrix(-1 0 0 1 76 312)" fill="#F0CC47"/>
<circle r="6" transform="matrix(-1 0 0 1 52 224)" fill="#F0CC47"/>
<circle r="6" transform="matrix(-1 0 0 1 75 137)" fill="#F0CC47"/>
<circle r="6" transform="matrix(-1 0 0 1 132 78)" fill="#F0CC47"/>
<circle r="6" transform="matrix(-1 0 0 1 224 396)" fill="#F0CC47"/>
<circle r="6" transform="matrix(-1 0 0 1 100 104)" fill="#F0CC47"/>
<circle cx="60.0732" cy="275.072" r="6" transform="rotate(-117.056 60.0732 275.072)" fill="#F0CC47"/>
<circle cx="58.0727" cy="178.072" r="6" transform="rotate(-117.056 58.0727 178.072)" fill="#F0CC47"/>
<circle r="6" transform="matrix(0.454864 0.890561 0.890561 -0.454864 103.073 347.073)" fill="#F0CC47"/>
<circle r="6" transform="matrix(0.454864 0.890561 0.890561 -0.454864 179.073 389.073)" fill="#F0CC47"/>
<circle r="6" transform="matrix(0.454864 0.890561 0.890561 -0.454864 275.073 388.073)" fill="#F0CC47"/>
<circle r="6" transform="matrix(0.454864 0.890561 0.890561 -0.454864 349.073 342.073)" fill="#F0CC47"/>
<circle r="6" transform="matrix(0.454864 0.890561 0.890561 -0.454864 390.073 269.073)" fill="#F0CC47"/>
<circle r="6" transform="matrix(0.454864 0.890561 0.890561 -0.454864 388.073 173.073)" fill="#F0CC47"/>
<path d="M195.213 432.5L225.523 380L255.834 432.5H195.213Z" fill="#CDD0CF" stroke="#212322" stroke-width="4" stroke-linejoin="round"/>
</svg>
