<svg width="72" height="72" viewBox="0 0 72 72" fill="none" xmlns="http://www.w3.org/2000/svg">
<path d="M47.6223 21.7718L38.4258 12.7969V21.7718H47.6223Z" fill="#8E0360"/>
<path d="M37.8393 22.933C37.6854 22.933 37.5378 22.8718 37.4289 22.763C37.3201 22.6542 37.2589 22.5066 37.2589 22.3526V12H13.4395C13.0579 12.0006 12.6921 12.1525 12.4223 12.4223C12.1525 12.6921 12.0006 13.0579 12 13.4395V55.0236C12.0006 55.405 12.1525 55.7706 12.4224 56.04C12.6923 56.3095 13.0581 56.4608 13.4395 56.4608H47.0267C47.408 56.4608 47.7738 56.3095 48.0437 56.04C48.3136 55.7706 48.4655 55.405 48.4661 55.0236V22.933H37.8393Z" fill="#BD0F72"/>
<path fill-rule="evenodd" clip-rule="evenodd" d="M16.2109 35.6757C16.2109 35.4233 16.4155 35.2188 16.6679 35.2188H43.8004C44.0528 35.2188 44.2574 35.4233 44.2574 35.6757C44.2574 35.9281 44.0528 36.1327 43.8004 36.1327H16.6679C16.4155 36.1327 16.2109 35.9281 16.2109 35.6757Z" fill="white"/>
<path fill-rule="evenodd" clip-rule="evenodd" d="M16.2852 28.789C16.2852 28.5366 16.4897 28.332 16.7421 28.332H43.8746C44.127 28.332 44.3316 28.5366 44.3316 28.789C44.3316 29.0414 44.127 29.246 43.8746 29.246H16.7421C16.4897 29.246 16.2852 29.0414 16.2852 28.789Z" fill="white"/>
<path fill-rule="evenodd" clip-rule="evenodd" d="M16.2852 42.4882C16.2852 42.2358 16.4897 42.0312 16.7421 42.0312H32.9691C33.2215 42.0312 33.4261 42.2358 33.4261 42.4882C33.4261 42.7406 33.2215 42.9452 32.9691 42.9452H16.7421C16.4897 42.9452 16.2852 42.7406 16.2852 42.4882Z" fill="white"/>
<path fill-rule="evenodd" clip-rule="evenodd" d="M16.2109 49.3749C16.2109 49.1226 16.4155 48.918 16.6679 48.918H32.968C33.2204 48.918 33.4249 49.1226 33.4249 49.3749C33.4249 49.6273 33.2204 49.8319 32.968 49.8319H16.6679C16.4155 49.8319 16.2109 49.6273 16.2109 49.3749Z" fill="white"/>
<path fill-rule="evenodd" clip-rule="evenodd" d="M16.2852 21.8046C16.2852 21.5522 16.4897 21.3477 16.7421 21.3477H32.9691C33.2215 21.3477 33.4261 21.5522 33.4261 21.8046C33.4261 22.057 33.2215 22.2616 32.9691 22.2616H16.7421C16.4897 22.2616 16.2852 22.057 16.2852 21.8046Z" fill="white"/>
<path d="M47.7566 38.6484C49.8511 38.6489 51.8984 39.2704 53.6396 40.4343C55.3809 41.5983 56.7379 43.2524 57.5391 45.1876C58.3403 47.1227 58.5497 49.252 58.1408 51.3062C57.7319 53.3603 56.7231 55.2471 55.242 56.728C53.7608 58.2088 51.8738 59.2172 49.8196 59.6256C47.7653 60.0341 45.6361 59.8242 43.7011 59.0226C41.7661 58.221 40.1123 56.8636 38.9487 55.1221C37.7851 53.3806 37.1641 51.3332 37.1641 49.2387C37.1677 46.4307 38.2849 43.7388 40.2707 41.7535C42.2565 39.7681 44.9486 38.6515 47.7566 38.6484Z" fill="white"/>
<path fill-rule="evenodd" clip-rule="evenodd" d="M53.5439 40.5763C51.8308 39.4312 49.8167 38.8198 47.7562 38.8193C44.9936 38.8223 42.345 39.9209 40.3913 41.8741C38.4377 43.8274 37.3385 46.4757 37.3349 49.2383C37.3349 51.2988 37.9459 53.3131 39.0907 55.0264C40.2354 56.7397 41.8625 58.0751 43.7662 58.8638C45.6698 59.6524 47.7646 59.8589 49.7856 59.4571C51.8066 59.0552 53.6631 58.0631 55.1203 56.6063C56.5775 55.1494 57.57 53.2931 57.9723 51.2722C58.3745 49.2513 58.1685 47.1564 57.3803 45.2526C56.592 43.3488 55.257 41.7214 53.5439 40.5763ZM47.7561 38.6479L47.7559 38.4766C44.9025 38.4796 42.1669 39.6143 40.149 41.6318C38.1312 43.6492 36.9959 46.3846 36.9922 49.238L36.9922 49.2382C36.9922 51.3665 37.6233 53.4471 38.8057 55.2168C39.9881 56.9865 41.6687 58.3658 43.635 59.1804C45.6013 59.995 47.765 60.2083 49.8525 59.7932C51.9399 59.3781 53.8575 58.3534 55.3626 56.8486C56.8678 55.3438 57.8929 53.4265 58.3084 51.3391C58.7239 49.2517 58.5111 47.088 57.6969 45.1215C56.8828 43.155 55.5038 41.4741 53.7344 40.2914C51.9649 39.1086 49.8845 38.477 47.7561 38.4766L47.7561 38.6479Z" fill="#23516B"/>
<path fill-rule="evenodd" clip-rule="evenodd" d="M42.4013 43.8724C42.7586 43.5159 43.3373 43.5166 43.6938 43.8739L53.1097 53.3126C53.4661 53.67 53.4654 54.2486 53.1081 54.6051C52.7507 54.9616 52.1721 54.9609 51.8156 54.6036L42.3997 45.1649C42.0432 44.8075 42.0439 44.2289 42.4013 43.8724Z" fill="#BD0F72"/>
<path fill-rule="evenodd" clip-rule="evenodd" d="M53.1081 43.8724C53.4654 44.2289 53.4661 44.8075 53.1097 45.1649L43.6938 54.6036C43.3373 54.9609 42.7586 54.9616 42.4013 54.6051C42.0439 54.2486 42.0432 53.67 42.3997 53.3126L51.8156 43.8739C52.1721 43.5166 52.7507 43.5159 53.1081 43.8724Z" fill="#BD0F72"/>
</svg>

