<svg width="28" height="28" viewBox="0 0 28 28" fill="none"
    xmlns="http://www.w3.org/2000/svg">
    <path d="M5.0083 3.65674C4.30114 3.65674 3.69703 4.22205 3.69703 4.92526V22.1752H1.24562C1.17865 22.1752 1.09324 22.1408 1.02075 22.0712C0.947616 22.001 0.916748 21.9235 0.916748 21.8696V1.31416C0.916748 1.06649 1.10914 0.916016 1.24562 0.916016H12.3407C12.3475 0.916016 12.3503 0.917307 12.352 0.918216C12.3548 0.919645 12.3597 0.923063 12.3657 0.930255C12.3719 0.937699 12.3768 0.946346 12.3797 0.953562C12.3798 0.953979 12.38 0.954371 12.3801 0.954736V3.65674H5.0083Z" fill="white" stroke="#004D6C" stroke-width="0.5"/>
    <path d="M19.5833 12.0787C14.9516 12.0787 11.2193 15.7536 11.2193 20.3287C11.2193 22.283 11.8651 24.0084 12.9492 25.2836H5.79917C5.52181 25.2836 5.26709 25.0831 5.26709 24.7625V5.58164C5.26709 5.3167 5.46528 5.06055 5.79917 5.06055H16.8804L22.1684 10.0984V12.4711C21.3559 12.2326 20.4716 12.0787 19.5833 12.0787Z" fill="white" stroke="#004D6C" stroke-width="0.5"/>
    <path d="M19.8616 13.3496C23.8198 13.3496 27.0835 16.4751 27.0835 20.216C27.0835 23.9569 23.8198 27.0825 19.8616 27.0825C15.9034 27.0825 12.6396 23.9569 12.6396 20.216C12.6396 16.473 15.806 13.3496 19.8616 13.3496Z" fill="#E9E8E8" stroke="#004D6C" stroke-width="0.5"/>
    <path d="M18.0119 20.0993L17.3145 20.0993C17.0156 20.0993 16.7168 19.9095 16.5175 19.6249C16.3183 19.3402 16.5175 18.9607 16.7168 18.7709L19.0082 16.3987C19.1078 16.3039 19.307 16.209 19.6059 16.209C19.8052 16.209 20.0044 16.3039 20.2037 16.4936L22.4951 18.7709C22.6943 18.9607 22.7939 19.3402 22.6943 19.6249C22.5947 19.9095 22.2958 20.0993 21.8973 20.0993L21.1999 20.0993L21.1999 23.3254C21.1999 23.8947 20.8014 24.3691 20.2037 24.3691L19.0082 24.3691C18.4104 24.3691 18.0119 23.8947 18.0119 23.3254L18.0119 20.0993Z" fill="#004D6C"/>
    <g opacity="0.9">
        <path d="M16.9805 9.9913H22.4184L16.9805 4.81055V9.9913Z" fill="#003B50"/>
    </g>
    <path d="M9.79881 19.5169H7.30817C7.10892 19.5169 6.90967 19.3271 6.90967 19.1374C6.90967 18.9476 7.10892 18.7578 7.30817 18.7578H9.79881C9.99806 18.7578 10.1973 18.9476 10.1973 19.1374C10.0977 19.3271 9.99806 19.5169 9.79881 19.5169Z" fill="#004D6C"/>
    <path d="M13.5848 13.2532H7.40802C7.20877 13.2532 7.00952 13.0635 7.00952 12.8737C7.00952 12.6839 7.20877 12.4941 7.40802 12.4941H13.5848C13.7841 12.4941 13.9833 12.6839 13.9833 12.8737C13.9833 13.0635 13.7841 13.2532 13.5848 13.2532Z" fill="#004D6C"/>
    <path d="M10.4962 16.3841H7.30817C7.10892 16.3841 6.90967 16.1943 6.90967 16.0045C6.90967 15.8148 7.10892 15.625 7.30817 15.625H10.4962C10.6954 15.625 10.8947 15.8148 10.8947 16.0045C10.8947 16.1943 10.6954 16.3841 10.4962 16.3841Z" fill="#004D6C"/>
    <path d="M10.4962 22.7415H7.30817C7.10892 22.7415 6.90967 22.5517 6.90967 22.362C6.90967 22.1722 7.10892 21.9824 7.30817 21.9824H10.4962C10.6954 21.9824 10.8947 22.1722 10.8947 22.362C10.8947 22.5517 10.6954 22.7415 10.4962 22.7415Z" fill="#004D6C"/>
    <path d="M15.1786 10.1224H7.30817C7.10892 10.1224 6.90967 9.93259 6.90967 9.74282C6.90967 9.55305 7.10892 9.36328 7.30817 9.36328H15.1786C15.3778 9.36328 15.5771 9.55305 15.5771 9.74282C15.5771 9.93259 15.3778 10.1224 15.1786 10.1224Z" fill="#004D6C"/>
</svg>
