<svg width="99" height="46" viewBox="0 0 99 46" fill="none" xmlns="http://www.w3.org/2000/svg">
<g clip-path="url(#clip0)">
<path d="M0 35.209V0H31.2446V35.209H0ZM7.59126 28.3544H23.6455V6.85464H7.59126V28.3544Z" fill="#BD0F72"/>
<path d="M72.3674 35.2079V0.00109863H98.7776V6.83267H79.9626V13.949H98.7776V20.6742H79.9626V28.3769H98.7776V35.2079H72.3674Z" fill="#BD0F72"/>
<path d="M2.44057 46C1.02699 46 0 45.0085 0 43.6439C0 42.2792 1.02699 41.286 2.44057 41.286C3.85416 41.286 4.87326 42.2775 4.87326 43.6439C4.87326 45.0102 3.85078 46 2.44057 46ZM2.44057 42.2477C1.67582 42.2477 1.12153 42.8358 1.12153 43.6439C1.12153 44.4519 1.67582 45.0372 2.44057 45.0372C3.20532 45.0372 3.75286 44.4519 3.75286 43.6439C3.7523 42.824 3.2132 42.2477 2.44057 42.2477Z" fill="#BD0F72"/>
<path d="M7.95366 41.286C6.52432 41.286 5.48608 42.2775 5.48608 43.6439C5.48608 45.0102 6.52489 46 7.95366 46C9.05268 46 9.62667 45.3698 9.91647 44.8245L8.97615 44.3788C8.88319 44.5723 8.73844 44.7364 8.55796 44.8527C8.37749 44.969 8.16832 45.033 7.95366 45.0378C7.18666 45.0378 6.60761 44.439 6.60761 43.6444C6.60761 42.8363 7.17372 42.2483 7.95366 42.2483C8.1684 42.2533 8.37756 42.3176 8.55802 42.4341C8.73848 42.5506 8.88319 42.7147 8.97615 42.9084L9.91704 42.4582C9.63454 41.9123 9.06675 41.286 7.95366 41.286Z" fill="#BD0F72"/>
<path d="M10.8281 45.915V41.3631H14.1403V42.3113H11.9282V43.1329H14.0914V44.0811H11.9282V44.9674H14.1403V45.915H10.8281Z" fill="#BD0F72"/>
<path d="M18.4976 45.9156L18.268 45.2471H16.3637L16.1324 45.9156H14.8798L16.5938 41.3608H18.0384L19.7519 45.9156H18.4976ZM16.6569 44.2989H17.9731L17.3198 42.3462L16.6569 44.2989Z" fill="#BD0F72"/>
<path d="M23.5898 45.915L21.5498 43.1233V45.915H20.4486V41.3631H21.6084L23.5661 44.0237V41.3631H24.673V45.915H23.5898Z" fill="#BD0F72"/>
<path d="M31.9688 45.915L29.9278 43.1233V45.915H28.8277V41.3631H29.9875L31.9452 44.0237V41.3631H33.0538V45.915H31.9688Z" fill="#BD0F72"/>
<path d="M34.2715 45.915V41.3631H37.5821V42.3113H35.3723V43.1329H37.5343V44.0811H35.3723V44.9674H37.5821V45.915H34.2715Z" fill="#BD0F72"/>
<path d="M39.7109 45.915V42.3113H38.407V41.3631H42.1093V42.3113H40.8127V45.915H39.7109Z" fill="#BD0F72"/>
<path d="M46.7828 45.915L46.0377 43.0384L45.2955 45.915H44.1025L42.7986 41.3631H44.0406L44.7777 44.4283V44.4294L45.6168 41.3631H46.4603L47.296 44.4294V44.4283L48.0303 41.3631H49.2785L47.9758 45.915H46.7828Z" fill="#BD0F72"/>
<path d="M51.9999 46C50.5863 46 49.5599 45.0085 49.5599 43.6439C49.5599 42.2792 50.5863 41.286 51.9999 41.286C53.4134 41.286 54.4337 42.2775 54.4337 43.6439C54.4337 45.0102 53.4101 46 51.9999 46ZM51.9999 42.2477C51.2351 42.2477 50.6808 42.8358 50.6808 43.6439C50.6808 44.4519 51.2351 45.0372 51.9999 45.0372C52.7646 45.0372 53.311 44.4519 53.311 43.6439C53.3116 42.824 52.7719 42.2477 51.9999 42.2477Z" fill="#BD0F72"/>
<path d="M57.7746 45.9156L56.9935 44.3551H56.3014V45.9156H55.2007V41.3608H57.4797C58.4178 41.3608 59.0475 41.9624 59.0475 42.8588C59.0475 43.8205 58.3638 44.134 58.1533 44.2094L58.0971 44.228L59.0335 45.9162L57.7746 45.9156ZM56.3599 43.4058H57.3576C57.7324 43.4058 57.9851 43.1841 57.9851 42.8555C57.9851 42.5268 57.7324 42.3113 57.3576 42.3113H56.3599V43.4058Z" fill="#BD0F72"/>
<path d="M62.6147 45.915L61.3716 44.1317L61.0058 44.5876V45.915H59.9046V41.3631H61.0058V43.3732L62.51 41.3631H63.8578L62.0942 43.488L63.9596 45.915H62.6147Z" fill="#BD0F72"/>
<path d="M67.5206 45.915V41.3631H70.8311V42.3113H68.6218V43.1329H70.7827V44.0811H68.6218V44.9674H70.8311V45.915H67.5206Z" fill="#BD0F72"/>
<path d="M74.9486 45.915L73.9098 44.3124L72.871 45.915H71.5768L73.1597 43.5791L71.6792 41.3631H72.9757L73.9098 42.8656L74.8361 41.3631H76.1388L74.6594 43.573L76.2435 45.915H74.9486Z" fill="#BD0F72"/>
<path d="M76.9255 45.9156V41.3608H79.2057C80.289 41.3608 80.7735 42.1132 80.7735 42.8588C80.7735 43.6045 80.289 44.3506 79.2057 44.3506H78.0274V45.9122L76.9255 45.9156ZM78.0279 43.4058H79.0245C79.3942 43.4058 79.6537 43.1807 79.6537 42.8616C79.6537 42.5313 79.401 42.3113 79.0245 42.3113H78.0279V43.4058Z" fill="#BD0F72"/>
<path d="M84.1032 45.9156L83.321 44.3551H82.6288V45.9156H81.5264V41.3608H83.8083C84.7447 41.3608 85.375 41.9624 85.375 42.8588C85.375 43.8205 84.6912 44.134 84.4819 44.2094L84.4256 44.228L85.3609 45.9162L84.1032 45.9156ZM82.6288 43.4058H83.6254C84.0002 43.4058 84.2546 43.1841 84.2546 42.8555C84.2546 42.5268 84.0008 42.3113 83.6254 42.3113H82.6288V43.4058Z" fill="#BD0F72"/>
<path d="M86.3141 45.915V41.3631H89.6253V42.3113H87.4137V43.1329H89.5758V44.0811H87.4137V44.9674H89.6253V45.915H86.3141Z" fill="#BD0F72"/>
<path d="M90.4075 45.2999C90.9167 45.7631 91.5892 45.9989 92.4074 45.9989C93.5892 45.9989 94.2965 45.4361 94.2965 44.4919C94.2965 43.4334 93.2588 43.2116 92.502 43.0496C92.0349 42.95 91.6674 42.8718 91.6674 42.6236C91.6674 42.4548 91.7631 42.2539 92.2189 42.2539C92.7085 42.2542 93.1839 42.4182 93.5695 42.7198L94.1671 41.8994C93.6865 41.5021 93.0574 41.2927 92.3438 41.2927C91.1058 41.2927 90.5431 42.0338 90.5431 42.7226C90.5431 43.8126 91.5718 44.0231 92.323 44.1773C92.7974 44.2746 93.1722 44.3517 93.1722 44.6179C93.1722 44.8756 92.9021 45.0366 92.4688 45.0366C91.9168 45.0393 91.3849 44.8298 90.9832 44.4513L90.4075 45.2999Z" fill="#BD0F72"/>
<path d="M94.8891 45.2999C95.3956 45.7631 96.0708 45.9988 96.8879 45.9988C98.0697 45.9988 98.777 45.4361 98.777 44.4918C98.777 43.4333 97.7393 43.2116 96.9813 43.0496C96.5165 42.95 96.1479 42.8717 96.1479 42.6236C96.1479 42.4548 96.2436 42.2539 96.7 42.2539C97.1895 42.2542 97.6649 42.4182 98.0505 42.7198L98.647 41.8999C98.1664 41.5026 97.5373 41.2933 96.8249 41.2933C95.5869 41.2933 95.0242 42.0344 95.0242 42.7232C95.0242 43.8132 96.0528 44.0237 96.8052 44.1778C97.2785 44.2752 97.6532 44.3523 97.6532 44.6185C97.6532 44.8762 97.3843 45.0371 96.9481 45.0371C96.3968 45.04 95.8656 44.8304 95.4648 44.4519L94.8891 45.2999Z" fill="#BD0F72"/>
<path d="M67.7479 0.00616455H60.151V22.3652C60.151 22.3652 45.4322 3.34767 42.7817 0.00616455H35.8641V35.209H43.461V12.8021C43.461 12.8021 55.5755 28.5547 60.8455 35.209H67.7457L67.7479 0.00616455Z" fill="#BD0F72"/>
</g>
<defs>
<clipPath id="clip0">
<rect width="98.7776" height="46" fill="white"/>
</clipPath>
</defs>
</svg>
